<svg width="92" height="92" viewBox="0 0 92 92" fill="none" xmlns="http://www.w3.org/2000/svg">
<rect width="92" height="92" rx="14" fill="#1C1D1E"/>
<path d="M15.6687 25.412V18.596L16.1127 19.616L14.3127 20.468L13.9647 18.644L16.3527 17.48H17.6727V25.412H15.6687ZM14.1327 26V24.2H19.2447V26H14.1327Z" fill="#434343"/>
<path d="M13.349 38V29.6H17.057C17.633 29.6 18.121 29.684 18.521 29.852C18.921 30.012 19.221 30.248 19.421 30.56C19.629 30.864 19.733 31.232 19.733 31.664C19.733 32.144 19.613 32.548 19.373 32.876C19.141 33.204 18.801 33.424 18.353 33.536L18.329 33.308C18.705 33.388 19.029 33.528 19.301 33.728C19.581 33.928 19.797 34.176 19.949 34.472C20.101 34.76 20.177 35.088 20.177 35.456C20.177 35.88 20.105 36.252 19.961 36.572C19.817 36.884 19.609 37.148 19.337 37.364C19.065 37.58 18.745 37.74 18.377 37.844C18.017 37.948 17.617 38 17.177 38H13.349ZM15.269 36.296H17.105C17.329 36.296 17.517 36.26 17.669 36.188C17.829 36.116 17.953 36.012 18.041 35.876C18.129 35.732 18.173 35.56 18.173 35.36C18.173 35.176 18.125 35.02 18.029 34.892C17.941 34.764 17.813 34.668 17.645 34.604C17.477 34.532 17.277 34.496 17.045 34.496H15.269V36.296ZM15.269 32.972H16.769C16.977 32.972 17.153 32.94 17.297 32.876C17.449 32.804 17.561 32.708 17.633 32.588C17.713 32.46 17.753 32.308 17.753 32.132C17.753 31.876 17.665 31.676 17.489 31.532C17.313 31.38 17.049 31.304 16.697 31.304H15.269V32.972Z" fill="#434343"/>
<path d="M16.4952 51.12C15.7432 51.12 15.0992 50.948 14.5632 50.604C14.0352 50.26 13.6312 49.768 13.3512 49.128C13.0712 48.48 12.9312 47.704 12.9312 46.8C12.9312 45.896 13.0712 45.124 13.3512 44.484C13.6312 43.836 14.0352 43.34 14.5632 42.996C15.0992 42.652 15.7432 42.48 16.4952 42.48C17.2472 42.48 17.8912 42.652 18.4272 42.996C18.9632 43.34 19.3712 43.836 19.6512 44.484C19.9312 45.124 20.0712 45.896 20.0712 46.8C20.0712 47.704 19.9312 48.48 19.6512 49.128C19.3712 49.768 18.9632 50.26 18.4272 50.604C17.8912 50.948 17.2472 51.12 16.4952 51.12ZM16.4952 49.392C17.0152 49.392 17.4152 49.168 17.6952 48.72C17.9832 48.272 18.1272 47.632 18.1272 46.8C18.1272 45.944 17.9832 45.288 17.6952 44.832C17.4152 44.368 17.0152 44.136 16.4952 44.136C15.9752 44.136 15.5712 44.368 15.2832 44.832C15.0032 45.288 14.8632 45.944 14.8632 46.8C14.8632 47.632 15.0032 48.272 15.2832 48.72C15.5712 49.168 15.9752 49.392 16.4952 49.392Z" fill="#434343"/>
<path d="M13.6888 64V55.6H19.5448V57.34H15.6688V62.26H19.6648V64H13.6888ZM14.6488 60.556V58.9H19.0048V60.556H14.6488Z" fill="#434343"/>
<path d="M16.7153 77V70.208L17.8073 70.232L14.7713 73.952L14.4833 73.592H20.0513V75.272H13.5713L12.7553 73.7L17.0393 68.528H18.6833V77H16.7153Z" fill="#434343"/>
<rect x="24" y="15" width="30" height="11" rx="5.5" fill="#0ACF83"/>
<rect x="26" y="67" width="28" height="11" rx="5.5" fill="#0ACF83"/>
<rect x="25" y="29" width="42" height="10" rx="5" fill="#0284C7"/>
<rect x="72" y="29" width="10" height="10" rx="5" fill="#FFC331"/>
<rect x="27" y="55" width="10" height="10" rx="5" fill="#FFE052"/>
<rect x="38" y="43" width="41" height="10" rx="5" fill="#EE513B"/>
</svg>
